<?xml version="1.0" encoding="UTF-8" standalone="no" ?>
<!DOCTYPE svg PUBLIC "-//W3C//DTD SVG 1.1//EN" "http://www.w3.org/Graphics/SVG/1.1/DTD/svg11.dtd">
<svg xmlns="http://www.w3.org/2000/svg" xmlns:xlink="http://www.w3.org/1999/xlink" version="1.1" width="1080" height="1080" viewBox="0 0 1080 1080" xml:space="preserve">
<desc>Created with Fabric.js 4.2.0</desc>
<defs>
</defs>
<rect x="0" y="0" width="100%" height="100%" fill="transparent"></rect>
<g transform="matrix(1 0 0 1 540 540)" id="950b433c-5d56-4f68-b074-45b60f121367"  >
<rect style="stroke: none; stroke-width: 1; stroke-dasharray: none; stroke-linecap: butt; stroke-dashoffset: 0; stroke-linejoin: miter; stroke-miterlimit: 4; fill: rgb(255,255,255); fill-rule: nonzero; opacity: 1;" vector-effect="non-scaling-stroke"  x="-540" y="-540" rx="0" ry="0" width="1080" height="1080" />
</g>
<g transform="matrix(1 0 0 1 540 540)" id="2cbd1a62-e001-4468-bb3d-4eee3bda0144"  >
</g>
<g transform="matrix(8.64 0 0 8.64 540 540)"  >
<path style="stroke: none; stroke-width: 1; stroke-dasharray: none; stroke-linecap: butt; stroke-dashoffset: 0; stroke-linejoin: miter; stroke-miterlimit: 4; fill: rgb(38,38,38); fill-rule: nonzero; opacity: 1;" vector-effect="non-scaling-stroke"  transform=" translate(-24, -24)" d="M 31.8 48 L 16.2 48 C 9.6 48 6.6 46.4 4.1 44 C 1.6 41.4 0 38.4 0 31.8 L 0 16.2 C 0 9.6 1.6 6.6 4 4.1 C 6.6 1.6 9.6 0 16.2 0 L 31.799999999999997 0 C 38.4 0 41.4 1.6 43.9 4 C 46.4 6.6 48 9.6 48 16.2 L 48 31.799999999999997 C 48 38.4 46.4 41.4 44 43.9 C 41.4 46.4 38.4 48 31.8 48 z M 16.2 3 C 10 3 7.8 4.6 6.1 6.2 C 4.6 7.8 3 10 3 16.2 L 3 31.799999999999997 C 3 38 4.6 40.199999999999996 6.2 41.9 C 7.800000000000001 43.5 10 45 16.2 45 L 31.799999999999997 45 C 38 45 40.199999999999996 43.4 41.9 41.8 C 43.5 40.199999999999996 45 38 45 31.799999999999997 L 45 16.2 C 45 10 43.4 7.799999999999999 41.8 6.1 C 40.2 4.6 38 3 31.8 3 L 16.2 3 z" stroke-linecap="round" />
</g>
<g transform="matrix(8.64 0 0 8.64 540 540)"  >
<path style="stroke: none; stroke-width: 1; stroke-dasharray: none; stroke-linecap: butt; stroke-dashoffset: 0; stroke-linejoin: miter; stroke-miterlimit: 4; fill: rgb(38,38,38); fill-rule: nonzero; opacity: 1;" vector-effect="non-scaling-stroke"  transform=" translate(-24, -24)" d="M 36.3 25.5 L 11.7 25.5 C 10.899999999999999 25.5 10.2 24.8 10.2 24 C 10.2 23.2 10.899999999999999 22.5 11.7 22.5 L 36.3 22.5 C 37.099999999999994 22.5 37.8 23.2 37.8 24 C 37.8 24.8 37.099999999999994 25.5 36.3 25.5 z" stroke-linecap="round" />
</g>
<g transform="matrix(8.64 0 0 8.64 540 540)"  >
<path style="stroke: none; stroke-width: 1; stroke-dasharray: none; stroke-linecap: butt; stroke-dashoffset: 0; stroke-linejoin: miter; stroke-miterlimit: 4; fill: rgb(38,38,38); fill-rule: nonzero; opacity: 1;" vector-effect="non-scaling-stroke"  transform=" translate(-24, -24)" d="M 24 37.8 C 23.2 37.8 22.5 37.099999999999994 22.5 36.3 L 22.5 11.7 C 22.5 10.899999999999999 23.2 10.2 24 10.2 C 24.8 10.2 25.5 10.899999999999999 25.5 11.7 L 25.5 36.3 C 25.5 37.099999999999994 24.8 37.8 24 37.8 z" stroke-linecap="round" />
</g>
</svg>